<svg width="2130" height="1485" viewBox="0 0 2130 1485" fill="none" xmlns="http://www.w3.org/2000/svg">
<g clip-path="url(#clip0_79_4000)">
<rect width="2130" height="1485" fill="black"/>
<g clip-path="url(#clip1_79_4000)">
<rect x="27" width="2166" height="1565" fill="black"/>
<g filter="url(#filter0_f_79_4000)">
<ellipse cx="979.5" cy="854" rx="356.5" ry="279" fill="#9E3CFF" fill-opacity="0.47"/>
</g>
<g filter="url(#filter1_f_79_4000)">
<circle cx="1117" cy="329" r="276" fill="#7828FB" fill-opacity="0.46"/>
</g>
<g opacity="0.2" filter="url(#filter2_f_79_4000)">
<ellipse cx="951.08" cy="845.85" rx="618.315" ry="300.184" transform="rotate(45.3527 951.08 845.85)" fill="#1FF2FF"/>
</g>
</g>
<g style="mix-blend-mode:multiply">
<mask id="mask0_79_4000" style="mask-type:alpha" maskUnits="userSpaceOnUse" x="165" y="-163" width="1649" height="1649">
<path fill-rule="evenodd" clip-rule="evenodd" d="M989.337 135.337V-162.663H987.337V135.337H934.052L903.205 -158.149L901.216 -157.94L932.041 135.337H877.532L818.018 -144.657L816.061 -144.241L875.487 135.337H818.429L734.707 -122.334L732.805 -121.716L816.326 135.337H755.146L654.186 -91.4243L652.359 -90.6109L752.957 135.337H688.337L688.295 135.337L576.567 -57.1671L573.107 -55.1592L684.114 136.101C679.57 137.81 676.337 142.196 676.337 147.337V230.529L505.002 -5.29301L503.384 -4.11745L676.337 233.932V313.715L437.973 48.9857L436.487 50.3239L676.337 316.704V379.51L376.986 109.973L375.648 111.46L676.337 382.201V433.929L322.707 177.002L321.531 178.62L676.337 436.401V480.626L275.732 249.337L274.732 251.069L676.337 482.936V521.98L236.575 326.186L235.762 328.013L676.337 524.17V559.637L205.666 406.707L205.048 408.609L676.337 561.74V594.807L183.343 490.018L182.927 491.974L676.337 596.851V628.439L169.851 575.205L169.642 577.195L676.337 630.45V661.337L165.337 661.337V663.337H676.337V694.235L169.851 747.469L170.06 749.458L676.337 696.246V727.867L183.343 832.656L183.759 834.613L676.337 729.912V763.037L205.666 915.967L206.284 917.869L676.337 765.14V800.694L236.576 996.488L237.389 998.315L676.337 802.883V842.048L275.732 1073.34L276.732 1075.07L676.337 844.357V888.745L322.707 1145.67L323.882 1147.29L676.337 891.217V943.164L376.986 1212.7L378.324 1214.19L676.337 945.855V1008.96L437.973 1273.69L439.46 1275.03L676.337 1011.95V1092.14L505.002 1327.97L506.62 1329.14L676.337 1095.55V1178.34C676.337 1183.04 679.037 1187.1 682.97 1189.07L576.607 1372.33L580.067 1374.34L686.91 1190.25C687.378 1190.31 687.854 1190.34 688.337 1190.34H753.811L654.186 1414.1L656.013 1414.91L756 1190.34H817.454L734.707 1445.01L736.609 1445.63L819.557 1190.34H876.895L818.018 1467.33L819.974 1467.75L878.939 1190.34H933.737L903.205 1480.82L905.194 1481.03L935.748 1190.34H989.337V1485.34H991.337V1190.34H1044.94L1075.47 1480.82L1077.46 1480.61L1046.95 1190.34H1101.78L1160.66 1467.33L1162.61 1466.91L1103.82 1190.34H1161.22L1243.97 1445.01L1245.87 1444.39L1163.32 1190.34H1224.86L1324.49 1414.1L1326.32 1413.28L1227.05 1190.34H1290.34C1291.26 1190.34 1292.17 1190.23 1293.03 1190.03L1399.6 1374.84L1400.86 1374.11L1401.34 1374.94L1403.07 1373.94L1402.59 1373.11L1403.07 1372.84L1296.75 1188.48C1300.11 1186.35 1302.34 1182.6 1302.34 1178.34V1092.14L1473.67 1327.97L1475.29 1326.79L1302.34 1088.74V1008.96L1540.7 1273.69L1542.19 1272.35L1302.34 1005.97V943.163L1601.69 1212.7L1603.03 1211.21L1302.34 940.472V888.745L1655.97 1145.67L1657.14 1144.05L1302.34 886.273V842.047L1702.94 1073.34L1703.94 1071.6L1302.34 839.738V800.693L1742.1 996.488L1742.91 994.661L1302.34 798.504V763.037L1773.01 915.967L1773.63 914.065L1302.34 760.934V727.867L1795.33 832.656L1795.75 830.7L1302.34 725.822V694.235L1808.82 747.469L1809.03 745.48L1302.34 692.224V661.337L1813.34 661.337V659.337H1302.34V628.439L1808.82 575.205L1808.61 573.216L1302.34 626.428V594.807L1795.33 490.018L1794.91 488.061L1302.34 592.762V559.637L1773.01 406.707L1772.39 404.805L1302.34 557.534V521.98L1742.1 326.186L1741.28 324.359L1302.34 519.791V480.626L1702.94 249.337L1701.94 247.605L1302.34 478.317V433.929L1655.97 177.002L1654.79 175.384L1302.34 431.457V379.511L1601.69 109.973L1600.35 108.487L1302.34 376.82V313.716L1540.7 48.9857L1539.21 47.6474L1302.34 310.727V230.53L1473.67 -5.293L1472.05 -6.46857L1302.34 227.127V147.337C1302.34 142.374 1299.32 138.115 1295.03 136.289L1404.57 -53.6641L1401.1 -55.6624L1290.95 135.352C1290.75 135.342 1290.54 135.337 1290.34 135.337H1223.53L1324.49 -91.4245L1322.66 -92.238L1221.34 135.337H1160.24L1243.97 -122.334L1242.06 -122.952L1158.14 135.337H1101.14L1160.66 -144.657L1158.7 -145.073L1099.1 135.337H1044.62L1075.47 -158.149L1073.48 -158.358L1042.61 135.337H989.337ZM1295.75 1186.74C1298.51 1184.96 1300.34 1181.86 1300.34 1178.34V1089.39L1267.34 1043.97V1122.34C1267.34 1125.75 1265.91 1128.84 1263.62 1131.02L1295.75 1186.74ZM1262.58 1129.23C1264.29 1127.43 1265.34 1125.01 1265.34 1122.34V1041.22L1240.34 1006.81V1084.34C1240.34 1085.99 1240 1087.57 1239.39 1089.01L1262.58 1129.23ZM1238.06 1086.7C1238.24 1085.94 1238.34 1085.15 1238.34 1084.34V1004.06L1207.34 961.388V1027.34C1207.34 1028.94 1207.02 1030.48 1206.45 1031.88L1238.06 1086.7ZM1205.09 1029.54C1205.25 1028.83 1205.34 1028.09 1205.34 1027.34V958.635L1166.34 904.957V952.337C1166.34 954.768 1165.61 957.03 1164.37 958.92L1205.09 1029.54ZM1163.22 956.928C1163.93 955.553 1164.34 953.992 1164.34 952.337V902.204L1005.94 684.193L1163.22 956.928ZM1002.98 687.062L1125.54 962.337H1154.34C1156.66 962.337 1158.8 961.544 1160.5 960.213L1002.98 687.062ZM1161.51 961.96C1159.51 963.453 1157.03 964.337 1154.34 964.337H1126.43L1158.93 1037.34H1195.34C1198.39 1037.34 1201.11 1035.97 1202.95 1033.82L1161.51 961.96ZM1204 1035.64C1201.81 1037.92 1198.74 1039.34 1195.34 1039.34H1159.82L1184.31 1094.34H1228.34C1231.34 1094.34 1234.04 1093.01 1235.87 1090.91L1204 1035.64ZM1236.92 1092.73C1234.74 1094.95 1231.7 1096.34 1228.34 1096.34H1185.2L1201.23 1132.34H1255.34C1256.74 1132.34 1258.08 1132.05 1259.29 1131.52L1236.92 1092.73ZM1260.3 1133.27C1258.79 1133.95 1257.11 1134.34 1255.34 1134.34H1202.12L1226.16 1188.34H1290.34C1290.9 1188.34 1291.44 1188.29 1291.98 1188.2L1260.3 1133.27ZM1222.64 137.337H1289.81L1258.43 191.74C1257.45 191.477 1256.41 191.337 1255.34 191.337H1198.59L1222.64 137.337ZM1294.02 138.037L1262.09 193.413C1265.26 195.573 1267.34 199.212 1267.34 203.337V275.3L1300.34 229.88V147.337C1300.34 143.115 1297.72 139.504 1294.02 138.037ZM1255.34 193.337C1256.04 193.337 1256.73 193.41 1257.39 193.548L1235.42 231.648C1233.43 230.195 1230.99 229.337 1228.34 229.337H1181.68L1197.7 193.337H1255.34ZM1261.08 195.152L1238.3 234.652C1239.59 236.562 1240.34 238.862 1240.34 241.337V312.463L1265.34 278.053V203.337C1265.34 199.953 1263.66 196.961 1261.08 195.152ZM1228.34 231.337C1230.62 231.337 1232.73 232.103 1234.41 233.393L1202.91 288.026C1200.84 286.345 1198.21 285.337 1195.34 285.337H1156.74L1180.79 231.337H1228.34ZM1237.16 236.631L1205.67 291.237C1206.73 293.024 1207.34 295.11 1207.34 297.337V357.883L1238.34 315.215V241.337C1238.34 239.636 1237.91 238.034 1237.16 236.631ZM1195.34 287.337C1197.84 287.337 1200.14 288.26 1201.89 289.785L1160.29 361.918C1158.54 360.912 1156.51 360.337 1154.34 360.337H1123.35L1155.85 287.337H1195.34ZM1204.49 293.294L1163.42 364.499C1165.24 366.602 1166.34 369.341 1166.34 372.337V414.315L1205.34 360.636V297.337C1205.34 295.898 1205.03 294.53 1204.49 293.294ZM1154.34 362.337C1156.14 362.337 1157.83 362.815 1159.3 363.651L995.13 648.325L1122.46 362.337H1154.34ZM993.249 652.549L993.472 652.05L993.571 652.107L993.249 652.549ZM1162.35 366.357L1012.94 625.444L1164.34 417.068V372.337C1164.34 370.095 1163.6 368.025 1162.35 366.357ZM1003.43 641.94L1002.22 644.044L1164.34 463.991V420.47L1003.43 641.94ZM688.025 1188.33C688.065 1188.33 688.104 1188.33 688.143 1188.34C688.207 1188.34 688.272 1188.34 688.337 1188.34H754.701L778.744 1134.34H723.337C722.066 1134.34 720.841 1134.14 719.691 1133.77L688.025 1188.33ZM720.725 1131.99C721.557 1132.22 722.433 1132.34 723.337 1132.34H779.634L795.662 1096.34H750.337C747.534 1096.34 744.955 1095.38 742.912 1093.76L720.725 1131.99ZM740.112 1090.62L717.146 1130.19C714.826 1128.36 713.337 1125.52 713.337 1122.34V1044.62L738.337 1010.21V1084.34C738.337 1086.64 738.986 1088.79 740.112 1090.62ZM743.928 1092.01C745.664 1093.46 747.898 1094.34 750.337 1094.34H796.553L821.041 1039.34H784.337C781.244 1039.34 778.424 1038.17 776.296 1036.24L743.928 1092.01ZM773.659 1032.82L741.287 1088.6C740.678 1087.3 740.337 1085.86 740.337 1084.34V1007.46L772.337 963.414V1027.34C772.337 1029.31 772.814 1031.18 773.659 1032.82ZM777.327 1034.47C779.132 1036.24 781.607 1037.34 784.337 1037.34H821.931L854.433 964.337H824.337C822.344 964.337 820.465 963.851 818.812 962.992L777.327 1034.47ZM815.598 960.561L774.906 1030.67C774.538 1029.63 774.337 1028.51 774.337 1027.34V960.662L812.337 908.359V952.337C812.337 955.52 813.576 958.413 815.598 960.561ZM819.817 961.26C821.175 961.948 822.71 962.337 824.337 962.337H855.323L974.337 695.026L819.817 961.26ZM979.165 678.74L816.655 958.739C815.208 957.005 814.337 954.773 814.337 952.337V905.606L979.165 678.74ZM716.133 1131.93L683.977 1187.34C680.638 1185.72 678.337 1182.3 678.337 1178.34V1092.79L711.337 1047.37V1122.34C711.337 1126.26 713.221 1129.75 716.133 1131.93ZM678.337 147.337C678.337 142.934 681.182 139.195 685.135 137.861L717.163 193.045C713.673 195.143 711.337 198.967 711.337 203.337V278.703L678.337 233.282V147.337ZM689.456 137.337L720.937 191.577C721.712 191.42 722.515 191.337 723.337 191.337H777.89L753.848 137.337H689.456ZM713.337 203.337C713.337 199.706 715.272 196.527 718.168 194.775L740.894 233.931C739.292 235.971 738.337 238.542 738.337 241.337V315.865L713.337 281.456V203.337ZM722.009 193.424L743.928 231.19C745.782 230.016 747.98 229.337 750.337 229.337H794.809L778.78 193.337H723.337C722.887 193.337 722.443 193.367 722.009 193.424ZM740.337 241.337C740.337 239.3 740.946 237.405 741.992 235.824L774.079 291.107C772.973 292.923 772.337 295.056 772.337 297.337V362.662L740.337 318.618V241.337ZM744.933 232.922L776.868 287.944C778.917 286.312 781.513 285.337 784.337 285.337H819.741L795.699 231.337H750.337C748.346 231.337 746.491 231.919 744.933 232.922ZM774.337 297.337C774.337 295.838 774.667 294.416 775.258 293.139L816.138 363.574C813.799 365.764 812.337 368.88 812.337 372.337V417.717L774.337 365.415V297.337ZM777.885 289.697L819.478 361.361C820.964 360.703 822.608 360.337 824.337 360.337H853.134L820.632 287.337H784.337C781.878 287.337 779.626 288.224 777.885 289.697ZM814.337 372.337C814.337 369.623 815.418 367.161 817.174 365.359L981.184 647.942L983.682 653.554L814.337 420.47V372.337ZM820.49 363.104L965.95 613.726L854.024 362.337H824.337C822.974 362.337 821.674 362.61 820.49 363.104ZM975.35 629.923L979.159 636.485L890.083 362.337H856.213L975.35 629.923ZM987.337 137.337H934.262L939.938 191.337H987.337V137.337ZM987.337 193.337H940.148L943.932 229.337H987.337V193.337ZM937.927 191.337L932.251 137.337H877.957L889.435 191.337H937.927ZM889.86 193.337H938.137L941.921 229.337H897.512L889.86 193.337ZM887.391 191.337L875.913 137.337H819.079L836.624 191.337H887.391ZM837.274 193.337H887.816L895.468 229.337H848.971L837.274 193.337ZM834.522 191.337L816.976 137.337H756.037L780.079 191.337H834.522ZM780.97 193.337H835.171L846.869 229.337H796.998L780.97 193.337ZM711.337 282.105L678.337 236.684V315.936L711.337 352.587V282.105ZM713.337 354.808V284.858L738.337 319.268V382.573L713.337 354.808ZM711.337 355.576L678.337 318.925V381.311L711.337 411.025V355.576ZM713.337 412.825V357.797L738.337 385.562V435.336L713.337 412.825ZM711.337 413.716L678.337 384.002V435.382L711.337 459.358V413.716ZM713.337 460.811V415.517L738.337 438.027V478.975L713.337 460.811ZM711.337 461.83L678.337 437.854V481.781L711.337 500.834V461.83ZM713.337 501.988V463.283L738.337 481.447V516.422L713.337 501.988ZM711.337 503.143L678.337 484.09V522.871L711.337 537.563V503.143ZM713.337 538.454V504.298L738.337 518.732V549.585L713.337 538.454ZM711.337 539.753L678.337 525.06V560.287L711.337 571.009V539.753ZM713.337 571.659V540.643L738.337 551.774V579.782L713.337 571.659ZM711.337 573.112L678.337 562.39V595.232L711.337 602.246V573.112ZM713.337 602.671V573.762L738.337 581.885V607.985L713.337 602.671ZM711.337 604.291L678.337 597.276V628.649L711.337 632.118V604.291ZM713.337 632.328V604.716L738.337 610.03V634.956L713.337 632.328ZM711.337 634.129L678.337 630.661V661.337H711.337V634.129ZM713.337 661.337V634.339L738.337 636.967V661.337H713.337ZM711.337 663.337H678.337V694.024L711.337 690.556V663.337ZM713.337 690.346V663.337H738.337V687.718L713.337 690.346ZM711.337 692.567L678.337 696.036V727.442L711.337 720.428V692.567ZM713.337 720.003V692.357L738.337 689.729V714.689L713.337 720.003ZM711.337 722.472L678.337 729.487V762.387L711.337 751.665V722.472ZM713.337 751.015V722.047L738.337 716.733V742.892L713.337 751.015ZM711.337 753.768L678.337 764.49V799.803L711.337 785.111V753.768ZM713.337 784.22V753.118L738.337 744.995V773.089L713.337 784.22ZM711.337 787.3L678.337 801.993V840.893L711.337 821.84V787.3ZM713.337 820.686V786.409L738.337 775.279V806.252L713.337 820.686ZM711.337 824.15L678.337 843.203V887.292L711.337 863.316V824.15ZM713.337 861.863V822.995L738.337 808.561V843.699L713.337 861.863ZM711.337 865.788L678.337 889.764V941.363L711.337 911.649V865.788ZM713.337 909.849V864.335L738.337 846.171V887.338L713.337 909.849ZM711.337 914.34L678.337 944.054V1006.74L711.337 970.087V914.34ZM713.337 967.866V912.54L738.337 890.03V940.101L713.337 967.866ZM711.337 973.076L678.337 1009.73V1089.39L711.337 1043.97V973.076ZM713.337 1041.22V970.855L738.337 943.09V1006.81L713.337 1041.22ZM780.933 1134.34L756.891 1188.34H818.104L835.65 1134.34H780.933ZM836.3 1132.34H781.823L797.852 1096.34H847.997L836.3 1132.34ZM837.753 1134.34L820.207 1188.34H877.32L888.798 1134.34H837.753ZM889.223 1132.34H838.403L850.1 1096.34H896.875L889.223 1132.34ZM890.842 1134.34L879.364 1188.34H933.947L939.623 1134.34H890.842ZM939.833 1132.34H891.268L898.92 1096.34H943.617L939.833 1132.34ZM941.634 1134.34L935.958 1188.34H989.337V1134.34H941.634ZM989.337 1132.34H941.844L945.628 1096.34H989.337V1132.34ZM991.337 1134.34V1188.34H1044.73L1039.05 1134.34H991.337ZM1038.84 1132.34H991.337V1096.34H1035.06L1038.84 1132.34ZM1041.06 1134.34L1046.74 1188.34H1101.35L1089.88 1134.34H1041.06ZM1089.45 1132.34H1040.85L1037.07 1096.34H1081.8L1089.45 1132.34ZM1091.92 1134.34L1103.4 1188.34H1160.57L1143.02 1134.34H1091.92ZM1142.37 1132.34H1091.5L1083.84 1096.34H1130.68L1142.37 1132.34ZM1145.13 1134.34L1162.67 1188.34H1223.97L1199.93 1134.34H1145.13ZM1199.04 1132.34H1144.48L1132.78 1096.34H1183.01L1199.04 1132.34ZM1267.34 1040.57L1300.34 1085.99V1006.74L1267.34 970.087V1040.57ZM1265.34 967.866V1037.82L1240.34 1003.41V940.101L1265.34 967.866ZM1267.34 967.098L1300.34 1003.75V941.362L1267.34 911.649V967.098ZM1265.34 909.848V964.877L1240.34 937.112V887.338L1265.34 909.848ZM1267.34 908.958L1300.34 938.671V887.292L1267.34 863.316V908.958ZM1265.34 861.863V907.157L1240.34 884.647V843.699L1265.34 861.863ZM1267.34 860.844L1300.34 884.819V840.893L1267.34 821.84V860.844ZM1265.34 820.686V859.391L1240.34 841.227V806.252L1265.34 820.686ZM1267.34 819.531L1300.34 838.583V799.803L1267.34 785.111V819.531ZM1265.34 784.22V818.376L1240.34 803.942V773.089L1265.34 784.22ZM1267.34 782.921L1300.34 797.614V762.387L1267.34 751.665V782.921ZM1265.34 751.015V782.031L1240.34 770.9V742.892L1265.34 751.015ZM1267.34 749.562L1300.34 760.284V727.442L1267.34 720.428V749.562ZM1265.34 720.003V748.912L1240.34 740.789V714.689L1265.34 720.003ZM1267.34 718.383L1300.34 725.397V694.024L1267.34 690.556V718.383ZM1265.34 690.346V717.958L1240.34 712.644V687.718L1265.34 690.346ZM1267.34 688.545L1300.34 692.013V661.337H1267.34V688.545ZM1265.34 661.337V688.335L1240.34 685.707V661.337H1265.34ZM1267.34 659.337H1300.34V628.65L1267.34 632.118V659.337ZM1265.34 632.328V659.337H1240.34V634.956L1265.34 632.328ZM1267.34 630.107L1300.34 626.638V595.232L1267.34 602.246V630.107ZM1265.34 602.671V630.317L1240.34 632.945V607.985L1265.34 602.671ZM1267.34 600.202L1300.34 593.187V560.287L1267.34 571.009V600.202ZM1265.34 571.659V600.627L1240.34 605.941V579.782L1265.34 571.659ZM1267.34 568.906L1300.34 558.184V522.871L1267.34 537.563V568.906ZM1265.34 538.454V569.556L1240.34 577.679V549.585L1265.34 538.454ZM1267.34 535.374L1300.34 520.682V481.781L1267.34 500.834V535.374ZM1265.34 501.988V536.264L1240.34 547.395V516.422L1265.34 501.988ZM1267.34 498.524L1300.34 479.472V435.382L1267.34 459.358V498.524ZM1265.34 460.811V499.679L1240.34 514.113V478.975L1265.34 460.811ZM1267.34 456.886L1300.34 432.91V381.312L1267.34 411.025V456.886ZM1265.34 412.825V458.339L1240.34 476.503V435.336L1265.34 412.825ZM1267.34 408.333L1300.34 378.62V315.937L1267.34 352.587V408.333ZM1265.34 354.808V410.134L1240.34 432.644V382.573L1265.34 354.808ZM1267.34 349.598L1300.34 312.948V233.283L1267.34 278.703V349.598ZM1265.34 281.456V351.819L1240.34 379.584V315.865L1265.34 281.456ZM1196.41 191.337L1220.45 137.337H1159.59L1142.05 191.337H1196.41ZM1141.4 193.337H1195.51L1179.49 229.337H1129.7L1141.4 193.337ZM1139.95 191.337L1157.49 137.337H1100.72L1089.24 191.337H1139.95ZM1088.81 193.337H1139.3L1127.6 229.337H1081.16L1088.81 193.337ZM1087.19 191.337L1098.67 137.337H1044.41L1038.74 191.337H1087.19ZM1038.53 193.337H1086.77L1079.12 229.337H1034.74L1038.53 193.337ZM1036.51 193.337L1032.73 229.337H989.337V193.337H1036.51ZM1036.73 191.337H989.337V137.337H1042.4L1036.73 191.337ZM942.131 231.337H897.938L909.416 285.337H947.807L942.131 231.337ZM895.893 231.337H849.621L867.167 285.337H907.371L895.893 231.337ZM847.518 231.337H797.888L821.931 285.337H865.064L847.518 231.337ZM740.337 322.02V384.794L772.337 420.334V366.065L740.337 322.02ZM740.337 387.783V437.136L772.337 465.949V423.323L740.337 387.783ZM740.337 439.828V480.428L772.337 503.677V468.641L740.337 439.828ZM740.337 482.9V517.577L772.337 536.052V506.149L740.337 482.9ZM740.337 519.886V550.475L772.337 564.722V538.361L740.337 519.886ZM740.337 552.664V580.432L772.337 590.829V566.912L740.337 552.664ZM740.337 582.535V608.41L772.337 615.212V592.932L740.337 582.535ZM740.337 610.455V635.166L772.337 638.529V617.257L740.337 610.455ZM740.337 637.177V661.337H772.337V640.54L740.337 637.177ZM740.337 663.337V687.508L772.337 684.145V663.337H740.337ZM740.337 689.519V714.264L772.337 707.462V686.156L740.337 689.519ZM740.337 716.308V742.242L772.337 731.844V709.506L740.337 716.308ZM740.337 744.345V772.199L772.337 757.952V733.947L740.337 744.345ZM740.337 774.388V805.097L772.337 786.622V760.141L740.337 774.388ZM740.337 807.407V842.246L772.337 818.997V788.931L740.337 807.407ZM740.337 844.718V885.537L772.337 856.725V821.469L740.337 844.718ZM740.337 888.229V937.88L772.337 902.34V859.416L740.337 888.229ZM740.337 940.869V1004.06L772.337 960.012V905.329L740.337 940.869ZM798.742 1094.34H848.647L866.517 1039.34H823.23L798.742 1094.34ZM850.75 1094.34H897.3L908.991 1039.34H868.62L850.75 1094.34ZM899.345 1094.34H943.827L949.608 1039.34H911.035L899.345 1094.34ZM945.838 1094.34H989.337V1039.34H951.618L945.838 1094.34ZM991.337 1094.34H1034.85L1029.07 1039.34H991.337V1094.34ZM1036.86 1094.34H1081.37L1069.68 1039.34H1031.08L1036.86 1094.34ZM1083.42 1094.34H1130.03L1112.16 1039.34H1071.73L1083.42 1094.34ZM1132.13 1094.34H1182.12L1157.63 1039.34H1114.26L1132.13 1094.34ZM1238.34 1000.65V937.879L1207.34 903.45V957.985L1238.34 1000.65ZM1238.34 934.891V885.537L1207.34 857.625V900.462L1238.34 934.891ZM1238.34 882.846V842.246L1207.34 819.723V854.934L1238.34 882.846ZM1238.34 839.774V805.097L1207.34 787.199V817.251L1238.34 839.774ZM1238.34 802.788V772.199L1207.34 758.397V784.89L1238.34 802.788ZM1238.34 770.01V742.242L1207.34 732.169V756.208L1238.34 770.01ZM1238.34 740.139V714.263L1207.34 707.674V730.067L1238.34 740.139ZM1238.34 712.219V687.508L1207.34 684.25V705.63L1238.34 712.219ZM1238.34 685.497V661.337H1207.34V682.239L1238.34 685.497ZM1238.34 659.337V635.166L1207.34 638.424V659.337H1238.34ZM1238.34 633.155V608.41L1207.34 615V636.413L1238.34 633.155ZM1238.34 606.366V580.432L1207.34 590.504V612.955L1238.34 606.366ZM1238.34 578.329V550.475L1207.34 564.277V588.401L1238.34 578.329ZM1238.34 548.286V517.577L1207.34 535.475V562.088L1238.34 548.286ZM1238.34 515.267V480.428L1207.34 502.951V533.165L1238.34 515.267ZM1238.34 477.956V437.136L1207.34 465.049V500.479L1238.34 477.956ZM1238.34 434.445V384.794L1207.34 419.223V462.358L1238.34 434.445ZM1238.34 381.805V318.618L1207.34 361.286V416.234L1238.34 381.805ZM1178.6 231.337H1129.05L1111.51 285.337H1154.55L1178.6 231.337ZM1126.95 231.337H1080.74L1069.26 285.337H1109.4L1126.95 231.337ZM1078.69 231.337H1034.53L1028.86 285.337H1067.21L1078.69 231.337ZM1032.52 231.337H989.337V285.337H1026.85L1032.52 231.337ZM987.337 285.337V231.337H944.142L949.818 285.337H987.337ZM987.337 287.337H950.028L957.7 360.337H987.337V287.337ZM909.841 287.337H948.017L955.689 360.337H925.357L909.841 287.337ZM867.817 287.337H907.796L923.313 360.337H891.536L867.817 287.337ZM822.821 287.337H865.714L889.433 360.337H855.323L822.821 287.337ZM774.337 422.555V368.817L812.337 421.12V464.758L774.337 422.555ZM774.337 467.75V425.544L812.337 467.747V501.965L774.337 467.75ZM774.337 505.13V470.441L812.337 504.657V532.739L774.337 505.13ZM774.337 537.207V507.602L812.337 535.211V559.146L774.337 537.207ZM774.337 565.613V539.516L812.337 561.455V582.532L774.337 565.613ZM774.337 591.479V567.802L812.337 584.721V603.826L774.337 591.479ZM774.337 615.637V593.582L812.337 605.929V623.714L774.337 615.637ZM774.337 638.74V617.682L812.337 625.759V642.733L774.337 638.74ZM774.337 661.337V640.751L812.337 644.745V661.337H774.337ZM774.337 683.934V663.337H812.337V679.94L774.337 683.934ZM774.337 707.037V685.945L812.337 681.952V698.959L774.337 707.037ZM774.337 731.195V709.081L812.337 701.004V718.848L774.337 731.195ZM774.337 757.061V733.298L812.337 720.951V740.142L774.337 757.061ZM774.337 785.467V759.25L812.337 742.332V763.528L774.337 785.467ZM774.337 817.544V787.777L812.337 765.837V789.935L774.337 817.544ZM774.337 854.924V820.016L812.337 792.407V820.708L774.337 854.924ZM774.337 900.119V857.615L812.337 823.4V857.915L774.337 900.119ZM774.337 957.259V903.108L812.337 860.904V904.957L774.337 957.259ZM867.167 1037.34H824.12L856.622 964.337H890.886L867.167 1037.34ZM909.416 1037.34H869.27L892.989 964.337H924.932L909.416 1037.34ZM949.818 1037.34H911.46L926.977 964.337H957.49L949.818 1037.34ZM989.337 1037.34H951.829L959.501 964.337H989.337V1037.34ZM1028.86 1037.34H991.337V964.337H1021.18L1028.86 1037.34ZM1069.26 1037.34H1030.87L1023.19 964.337H1053.74L1069.26 1037.34ZM1111.51 1037.34H1071.3L1055.79 964.337H1087.79L1111.51 1037.34ZM1156.74 1037.34H1113.61L1089.89 964.337H1124.24L1156.74 1037.34ZM1205.34 901.229V955.233L1166.34 901.554V857.915L1205.34 901.229ZM1205.34 855.824V898.24L1166.34 854.927V820.708L1205.34 855.824ZM1205.34 818.27V853.133L1166.34 818.017V789.935L1205.34 818.27ZM1205.34 786.044V815.798L1166.34 787.463V763.528L1205.34 786.044ZM1205.34 757.506V783.735L1166.34 761.219V740.142L1205.34 757.506ZM1205.34 731.52V755.317L1166.34 737.953V718.848L1205.34 731.52ZM1205.34 707.249V729.417L1166.34 716.745V698.959L1205.34 707.249ZM1205.34 684.039V705.204L1166.34 696.915V679.94L1205.34 684.039ZM1205.34 661.337V682.029L1166.34 677.93V661.337H1205.34ZM1205.34 638.634V659.337H1166.34V642.733L1205.34 638.634ZM1205.34 615.425V636.623L1166.34 640.722V623.714L1205.34 615.425ZM1205.34 591.154V613.38L1166.34 621.67V603.826L1205.34 591.154ZM1205.34 565.168V589.051L1166.34 601.723V582.531L1205.34 565.168ZM1205.34 536.629V562.978L1166.34 580.342V559.146L1205.34 536.629ZM1205.34 504.404V534.32L1166.34 556.836V532.739L1205.34 504.404ZM1205.34 466.85V501.932L1166.34 530.267V501.965L1205.34 466.85ZM1205.34 421.445V464.159L1166.34 499.274V464.758L1205.34 421.445ZM1205.34 364.039V418.456L1166.34 461.77V417.717L1205.34 364.039ZM1110.86 287.337H1153.66L1121.16 360.337H1087.14L1110.86 287.337ZM1068.83 287.337H1108.75L1085.03 360.337H1053.32L1068.83 287.337ZM1028.65 287.337H1066.79L1051.27 360.337H1020.97L1028.65 287.337ZM1026.64 287.337L1018.96 360.337H989.337V287.337H1026.64ZM955.9 362.337H925.782L985.359 642.621L955.9 362.337ZM923.738 362.337H892.186L983.425 643.141L923.738 362.337ZM814.337 423.873V466.98L976.534 647.117L814.337 423.873ZM814.337 469.969V503.766L975.118 648.534L814.337 469.969ZM814.337 506.457V534.192L973.858 650.091L814.337 506.457ZM814.337 536.664V560.301L972.767 651.771L814.337 536.664ZM814.337 562.61V583.422L971.857 653.555L814.337 562.61ZM814.337 585.611V604.476L971.14 655.424L814.337 585.611ZM814.337 606.579V624.14L970.62 657.359L814.337 606.579ZM814.337 626.184V642.944L970.308 659.337L814.337 626.184ZM814.337 644.955V661.337L970.203 661.337L814.337 644.955ZM814.337 663.337V679.73L970.307 663.337H814.337ZM814.337 681.741V698.534L970.62 665.315L814.337 681.741ZM814.337 700.579V718.198L971.139 667.25L814.337 700.579ZM814.337 720.301V739.252L971.857 669.119L814.337 720.301ZM814.337 741.441V762.373L972.766 670.904L814.337 741.441ZM814.337 764.683V788.482L973.857 672.584L814.337 764.683ZM814.337 790.954V818.908L975.118 674.14L814.337 790.954ZM814.337 821.599V855.694L976.535 675.555L814.337 821.599ZM814.337 858.683V902.204L978.09 676.817L814.337 858.683ZM857.512 962.337H891.536L983.424 679.534L857.512 962.337ZM893.639 962.337H925.357L985.359 680.052L893.639 962.337ZM927.402 962.337H957.701L987.337 680.366L927.402 962.337ZM959.712 962.337H989.337V680.47L959.712 962.337ZM991.337 962.337H1020.97L991.337 680.366V962.337ZM1022.98 962.337H1053.32L993.315 680.054L1022.98 962.337ZM1055.36 962.337H1087.14L995.25 679.534L1055.36 962.337ZM1089.24 962.337H1123.35L997.119 678.816L1089.24 962.337ZM1164.34 898.801V855.694L1002.14 675.556L1164.34 898.801ZM1164.34 852.705V818.908L1003.56 674.139L1164.34 852.705ZM1164.34 816.216V788.482L1004.82 672.583L1164.34 816.216ZM1164.34 786.01V762.373L1005.91 670.903L1164.34 786.01ZM1164.34 760.064V739.252L1006.82 669.119L1164.34 760.064ZM1164.34 737.063V718.198L1007.53 667.249L1164.34 737.063ZM1164.34 716.095V698.534L1008.05 665.315L1164.34 716.095ZM1164.34 696.49V679.73L1008.37 663.337L1164.34 696.49ZM1164.34 677.719V661.337L1008.47 661.337L1164.34 677.719ZM1164.34 659.337V642.944L1008.36 659.337H1164.34ZM1164.34 640.933V624.14L1008.05 657.359L1164.34 640.933ZM1164.34 622.095V604.476L1007.53 655.424L1164.34 622.095ZM1164.34 602.373V583.422L1006.82 653.554L1164.34 602.373ZM1164.34 581.233V560.301L1005.91 651.77L1164.34 581.233ZM1164.34 557.991V534.192L1004.82 650.091L1164.34 557.991ZM1164.34 531.72V503.766L1003.56 648.535L1164.34 531.72ZM1164.34 501.075V466.98L1002.14 647.118L1164.34 501.075ZM1120.27 362.337H1086.49L995.249 643.14L1120.27 362.337ZM1084.39 362.337H1052.89L993.315 642.621L1084.39 362.337ZM1050.85 362.337H1020.76L991.337 642.308L1050.85 362.337ZM1018.75 362.337H989.337V642.204L1018.75 362.337ZM987.337 642.31V362.337H957.911L987.337 642.31Z" fill="black"/>
</mask>
<g mask="url(#mask0_79_4000)">
<path fill-rule="evenodd" clip-rule="evenodd" d="M989.337 -162.663V661.337H987.337V-162.663H989.337Z" fill="black"/>
<path fill-rule="evenodd" clip-rule="evenodd" d="M1075.47 -158.149L989.337 661.337L987.348 661.128L1073.48 -158.358L1075.47 -158.149Z" fill="black"/>
<path fill-rule="evenodd" clip-rule="evenodd" d="M1160.66 -144.657L989.337 661.337L987.381 660.921L1158.7 -145.073L1160.66 -144.657Z" fill="black"/>
<path fill-rule="evenodd" clip-rule="evenodd" d="M1243.97 -122.334L989.337 661.337L987.435 660.719L1242.07 -122.952L1243.97 -122.334Z" fill="black"/>
<path fill-rule="evenodd" clip-rule="evenodd" d="M1324.49 -91.4245L989.337 661.337L987.51 660.523L1322.66 -92.238L1324.49 -91.4245Z" fill="black"/>
<path fill-rule="evenodd" clip-rule="evenodd" d="M1473.67 -5.29306L989.337 661.337L987.719 660.161L1472.05 -6.46863L1473.67 -5.29306Z" fill="black"/>
<path fill-rule="evenodd" clip-rule="evenodd" d="M1540.7 48.9857L989.337 661.337L987.851 659.999L1539.21 47.6475L1540.7 48.9857Z" fill="black"/>
<path fill-rule="evenodd" clip-rule="evenodd" d="M1601.69 109.973L989.337 661.337L987.999 659.851L1600.35 108.487L1601.69 109.973Z" fill="black"/>
<path fill-rule="evenodd" clip-rule="evenodd" d="M1655.97 177.002L989.337 661.337L988.162 659.719L1654.79 175.384L1655.97 177.002Z" fill="black"/>
<path fill-rule="evenodd" clip-rule="evenodd" d="M1702.94 249.337L989.337 661.337L988.337 659.605L1701.94 247.605L1702.94 249.337Z" fill="black"/>
<path fill-rule="evenodd" clip-rule="evenodd" d="M1742.1 326.186L989.337 661.337L988.524 659.51L1741.29 324.359L1742.1 326.186Z" fill="black"/>
<path fill-rule="evenodd" clip-rule="evenodd" d="M1773.01 406.707L989.337 661.337L988.719 659.435L1772.39 404.805L1773.01 406.707Z" fill="black"/>
<path fill-rule="evenodd" clip-rule="evenodd" d="M1795.33 490.018L989.337 661.337L988.921 659.381L1794.91 488.061L1795.33 490.018Z" fill="black"/>
<path fill-rule="evenodd" clip-rule="evenodd" d="M1808.82 575.205L989.337 661.337L989.128 659.348L1808.61 573.216L1808.82 575.205Z" fill="black"/>
<path fill-rule="evenodd" clip-rule="evenodd" d="M1813.34 661.337H989.337V659.337H1813.34V661.337Z" fill="black"/>
<path fill-rule="evenodd" clip-rule="evenodd" d="M1808.82 747.469L989.337 661.337L989.546 659.348L1809.03 745.48L1808.82 747.469Z" fill="black"/>
<path fill-rule="evenodd" clip-rule="evenodd" d="M1795.33 832.656L989.337 661.337L989.753 659.381L1795.75 830.7L1795.33 832.656Z" fill="black"/>
<path fill-rule="evenodd" clip-rule="evenodd" d="M1773.01 915.967L989.338 661.337L989.956 659.435L1773.63 914.065L1773.01 915.967Z" fill="black"/>
<path fill-rule="evenodd" clip-rule="evenodd" d="M1742.1 996.488L989.337 661.337L990.15 659.51L1742.91 994.661L1742.1 996.488Z" fill="black"/>
<path fill-rule="evenodd" clip-rule="evenodd" d="M1702.94 1073.34L989.337 661.337L990.337 659.605L1703.94 1071.6L1702.94 1073.34Z" fill="black"/>
<path fill-rule="evenodd" clip-rule="evenodd" d="M1655.97 1145.67L989.337 661.337L990.513 659.719L1657.14 1144.05L1655.97 1145.67Z" fill="black"/>
<path fill-rule="evenodd" clip-rule="evenodd" d="M1601.69 1212.7L989.337 661.337L990.675 659.851L1603.03 1211.21L1601.69 1212.7Z" fill="black"/>
<path fill-rule="evenodd" clip-rule="evenodd" d="M1540.7 1273.69L989.337 661.337L990.823 659.999L1542.19 1272.35L1540.7 1273.69Z" fill="black"/>
<path fill-rule="evenodd" clip-rule="evenodd" d="M1473.67 1327.97L989.338 661.337L990.956 660.161L1475.29 1326.79L1473.67 1327.97Z" fill="black"/>
<path fill-rule="evenodd" clip-rule="evenodd" d="M1401.34 1374.94L989.337 661.337L991.069 660.337L1403.07 1373.94L1401.34 1374.94Z" fill="black"/>
<path fill-rule="evenodd" clip-rule="evenodd" d="M1324.49 1414.1L989.337 661.337L991.164 660.523L1326.32 1413.28L1324.49 1414.1Z" fill="black"/>
<path fill-rule="evenodd" clip-rule="evenodd" d="M1243.97 1445.01L989.337 661.337L991.239 660.719L1245.87 1444.39L1243.97 1445.01Z" fill="black"/>
<path fill-rule="evenodd" clip-rule="evenodd" d="M1160.66 1467.33L989.337 661.337L991.293 660.921L1162.61 1466.91L1160.66 1467.33Z" fill="black"/>
<path fill-rule="evenodd" clip-rule="evenodd" d="M1075.47 1480.82L989.337 661.337L991.326 661.128L1077.46 1480.61L1075.47 1480.82Z" fill="black"/>
<path fill-rule="evenodd" clip-rule="evenodd" d="M989.337 1485.34V661.337H991.337V1485.34H989.337Z" fill="black"/>
<path fill-rule="evenodd" clip-rule="evenodd" d="M903.206 1480.82L989.337 661.337L991.326 661.546L905.195 1481.03L903.206 1480.82Z" fill="black"/>
<path fill-rule="evenodd" clip-rule="evenodd" d="M818.018 1467.33L989.337 661.337L991.293 661.753L819.974 1467.75L818.018 1467.33Z" fill="black"/>
<path fill-rule="evenodd" clip-rule="evenodd" d="M734.707 1445.01L989.337 661.337L991.239 661.955L736.609 1445.63L734.707 1445.01Z" fill="black"/>
<path fill-rule="evenodd" clip-rule="evenodd" d="M654.186 1414.1L989.337 661.337L991.164 662.151L656.013 1414.91L654.186 1414.1Z" fill="black"/>
<path fill-rule="evenodd" clip-rule="evenodd" d="M505.002 1327.97L989.338 661.337L990.956 662.513L506.621 1329.14L505.002 1327.97Z" fill="black"/>
<path fill-rule="evenodd" clip-rule="evenodd" d="M437.973 1273.69L989.337 661.337L990.823 662.675L439.46 1275.03L437.973 1273.69Z" fill="black"/>
<path fill-rule="evenodd" clip-rule="evenodd" d="M376.986 1212.7L989.337 661.337L990.675 662.823L378.324 1214.19L376.986 1212.7Z" fill="black"/>
<path fill-rule="evenodd" clip-rule="evenodd" d="M322.707 1145.67L989.337 661.337L990.513 662.955L323.883 1147.29L322.707 1145.67Z" fill="black"/>
<path fill-rule="evenodd" clip-rule="evenodd" d="M275.732 1073.34L989.337 661.337L990.337 663.069L276.732 1075.07L275.732 1073.34Z" fill="black"/>
<path fill-rule="evenodd" clip-rule="evenodd" d="M236.575 996.488L989.337 661.337L990.15 663.164L237.389 998.315L236.575 996.488Z" fill="black"/>
<path fill-rule="evenodd" clip-rule="evenodd" d="M205.667 915.967L989.338 661.337L989.956 663.239L206.285 917.869L205.667 915.967Z" fill="black"/>
<path fill-rule="evenodd" clip-rule="evenodd" d="M183.343 832.656L989.337 661.337L989.753 663.293L183.759 834.613L183.343 832.656Z" fill="black"/>
<path fill-rule="evenodd" clip-rule="evenodd" d="M169.851 747.468L989.337 661.337L989.546 663.326L170.06 749.458L169.851 747.468Z" fill="black"/>
<path fill-rule="evenodd" clip-rule="evenodd" d="M165.337 661.337L989.337 661.337V663.337L165.337 663.337V661.337Z" fill="black"/>
<path fill-rule="evenodd" clip-rule="evenodd" d="M169.85 575.205L989.336 661.337L989.127 663.326L169.641 577.194L169.85 575.205Z" fill="black"/>
<path fill-rule="evenodd" clip-rule="evenodd" d="M183.343 490.018L989.337 661.337L988.921 663.293L182.927 491.974L183.343 490.018Z" fill="black"/>
<path fill-rule="evenodd" clip-rule="evenodd" d="M205.666 406.707L989.337 661.337L988.719 663.239L205.048 408.609L205.666 406.707Z" fill="black"/>
<path fill-rule="evenodd" clip-rule="evenodd" d="M236.575 326.186L989.337 661.337L988.523 663.164L235.762 328.013L236.575 326.186Z" fill="black"/>
<path fill-rule="evenodd" clip-rule="evenodd" d="M275.732 249.337L989.337 661.337L988.337 663.069L274.732 251.069L275.732 249.337Z" fill="black"/>
<path fill-rule="evenodd" clip-rule="evenodd" d="M322.707 177.002L989.337 661.337L988.162 662.955L321.532 178.62L322.707 177.002Z" fill="black"/>
<path fill-rule="evenodd" clip-rule="evenodd" d="M376.986 109.973L989.337 661.337L987.999 662.823L375.648 111.46L376.986 109.973Z" fill="black"/>
<path fill-rule="evenodd" clip-rule="evenodd" d="M437.974 48.9857L989.337 661.337L987.851 662.675L436.487 50.324L437.974 48.9857Z" fill="black"/>
<path fill-rule="evenodd" clip-rule="evenodd" d="M505.002 -5.29301L989.337 661.337L987.719 662.513L503.384 -4.11744L505.002 -5.29301Z" fill="black"/>
<path fill-rule="evenodd" clip-rule="evenodd" d="M654.186 -91.4243L989.337 661.337L987.51 662.151L652.359 -90.6108L654.186 -91.4243Z" fill="black"/>
<path fill-rule="evenodd" clip-rule="evenodd" d="M734.707 -122.334L989.337 661.337L987.435 661.955L732.805 -121.716L734.707 -122.334Z" fill="black"/>
<path fill-rule="evenodd" clip-rule="evenodd" d="M818.018 -144.657L989.337 661.337L987.381 661.753L816.062 -144.241L818.018 -144.657Z" fill="black"/>
<path fill-rule="evenodd" clip-rule="evenodd" d="M903.205 -158.149L989.337 661.337L987.348 661.546L901.216 -157.94L903.205 -158.149Z" fill="black"/>
<rect x="677.337" y="136.337" width="624" height="1053" rx="11" stroke="black" stroke-width="2"/>
<rect x="813.337" y="361.337" width="352" height="602" rx="11" stroke="black" stroke-width="2"/>
<rect x="773.337" y="286.337" width="433" height="752" rx="11" stroke="black" stroke-width="2"/>
<rect x="739.337" y="230.337" width="500" height="865" rx="11" stroke="black" stroke-width="2"/>
<rect x="712.337" y="192.337" width="554" height="941" rx="11" stroke="black" stroke-width="2"/>
<path fill-rule="evenodd" clip-rule="evenodd" d="M573.107 -55.1592L984.607 653.841L988.067 651.833L576.567 -57.1671L573.107 -55.1592Z" fill="black"/>
<path fill-rule="evenodd" clip-rule="evenodd" d="M576.607 1372.33L988.107 663.333L991.567 665.341L580.067 1374.34L576.607 1372.33Z" fill="black"/>
<path fill-rule="evenodd" clip-rule="evenodd" d="M1404.57 -53.6641L996.57 653.836L993.105 651.838L1401.1 -55.6624L1404.57 -53.6641Z" fill="black"/>
<path fill-rule="evenodd" clip-rule="evenodd" d="M1403.07 1372.84L995.07 665.338L991.605 667.336L1399.6 1374.84L1403.07 1372.84Z" fill="black"/>
<g style="mix-blend-mode:lighten">
<rect x="-123" y="-259" width="2114" height="1841" fill="url(#paint0_linear_79_4000)"/>
</g>
</g>
</g>
</g>
<defs>
<filter id="filter0_f_79_4000" x="363" y="315" width="1233" height="1078" filterUnits="userSpaceOnUse" color-interpolation-filters="sRGB">
<feFlood flood-opacity="0" result="BackgroundImageFix"/>
<feBlend mode="normal" in="SourceGraphic" in2="BackgroundImageFix" result="shape"/>
<feGaussianBlur stdDeviation="130" result="effect1_foregroundBlur_79_4000"/>
</filter>
<filter id="filter1_f_79_4000" x="541" y="-247" width="1152" height="1152" filterUnits="userSpaceOnUse" color-interpolation-filters="sRGB">
<feFlood flood-opacity="0" result="BackgroundImageFix"/>
<feBlend mode="normal" in="SourceGraphic" in2="BackgroundImageFix" result="shape"/>
<feGaussianBlur stdDeviation="150" result="effect1_foregroundBlur_79_4000"/>
</filter>
<filter id="filter2_f_79_4000" x="166.809" y="57.8733" width="1568.54" height="1575.95" filterUnits="userSpaceOnUse" color-interpolation-filters="sRGB">
<feFlood flood-opacity="0" result="BackgroundImageFix"/>
<feBlend mode="normal" in="SourceGraphic" in2="BackgroundImageFix" result="shape"/>
<feGaussianBlur stdDeviation="150" result="effect1_foregroundBlur_79_4000"/>
</filter>
<linearGradient id="paint0_linear_79_4000" x1="934" y1="-259" x2="934" y2="1582" gradientUnits="userSpaceOnUse">
<stop stop-color="#F88B8B"/>
<stop offset="1" stop-color="#3A6FF8"/>
</linearGradient>
<clipPath id="clip0_79_4000">
<rect width="2130" height="1485" fill="white"/>
</clipPath>
<clipPath id="clip1_79_4000">
<rect width="2222" height="1485" fill="white"/>
</clipPath>
</defs>
</svg>
