<svg width="169" height="34" viewBox="0 0 169 34" fill="none" xmlns="http://www.w3.org/2000/svg">
<g clip-path="url(#clip0_72_1144)">
<path d="M133.444 10.6453L133.588 9.89447H148.674L146.815 23.1283C146.759 23.5305 146.571 23.8649 146.25 24.1283C145.945 24.3807 145.597 24.5053 145.206 24.5053H141.07L142.93 22.5668L143.306 19.7954H135.639L134.719 24.5053H130.75L133.444 10.6453ZM136.015 17.8158H143.598L143.87 15.8363H136.412L136.015 17.8158ZM136.787 13.8552H144.141L144.433 11.8756H137.185L136.787 13.8552Z" fill="white"/>
<path d="M162.022 10.4797L161.877 11.4797H163.861L164.029 10.2494L163.317 9.52069H167.266L166.994 11.4797H168.999L168.727 13.4593H166.699L166.491 15.0429H168.099L167.827 17.0225H166.197L165.988 18.7023H167.639L167.346 20.7024H165.716L165.487 22.245H167.534L167.193 24.4628H160.047H160.055H156.838L158.468 12.8536L157.674 13.0618L158.008 10.6863L162.165 9.53962L162.022 10.4797ZM151.577 14.1896L154.271 10.0633L154.615 9.54277H158.179L155.149 14.1896H157.53L154.48 18.9421H156.861L156.569 20.9642H150.614L150.907 18.9421L152.766 16.1707H151.305L151.577 14.1896ZM156.194 24.0668L150.178 24.0889L150.47 22.1094L156.466 22.0873L156.194 24.0668ZM161.376 15.0429H163.36L163.569 13.4593H161.605L161.376 15.0429ZM160.394 22.245H162.358L162.566 20.7024H160.602L160.394 22.245ZM160.895 18.7023H162.859L163.068 17.0225H161.104L160.895 18.7023Z" fill="white"/>
</g>
<path d="M50.6848 20.1549L46.8125 15.1866V24.4934H43.7478V9.48071H45.6943L51.1569 16.351L56.1226 9.48071H57.9987V24.4934H54.8884V15.7336L51.8693 19.9892L50.6848 20.1549Z" fill="white"/>
<path d="M66.7661 24.6384C64.9438 24.6384 63.5233 24.0873 62.5004 22.9851C61.4774 21.8829 60.968 20.4077 60.968 18.5513C60.968 16.7115 61.5023 15.2488 62.5708 14.1548C63.6393 13.0609 65.1012 12.5139 66.9525 12.5139C68.87 12.5139 70.3526 13.0816 71.4087 14.2128C72.4606 15.3441 72.9908 16.8317 72.9908 18.6715C72.9908 20.5113 72.4192 21.9657 71.2803 23.0348C70.1414 24.1039 68.6339 24.6384 66.7661 24.6384ZM69.8101 18.6715C69.8101 17.5775 69.5699 16.7198 69.0853 16.0941C68.6008 15.4684 67.9174 15.1535 67.0312 15.1535C66.1283 15.1535 65.4243 15.4311 64.9149 15.9864C64.4096 16.5416 64.1528 17.3869 64.1528 18.5306C64.1528 19.6743 64.3723 20.5362 64.8072 21.1204C65.242 21.7088 65.913 21.9989 66.8158 21.9989C67.7021 21.9989 68.4227 21.7337 68.9777 21.2033C69.5326 20.6729 69.8101 19.8317 69.8101 18.6715Z" fill="white"/>
<path d="M80.7851 24.6384C78.9629 24.6384 77.5424 24.0873 76.5194 22.9851C75.4965 21.8829 74.9871 20.4077 74.9871 18.5513C74.9871 16.7115 75.5213 15.2488 76.5898 14.1548C77.6583 13.0609 79.1203 12.5139 80.9715 12.5139C82.889 12.5139 84.3717 13.0816 85.4277 14.2128C86.4797 15.3441 87.0098 16.8317 87.0098 18.6715C87.0098 20.5113 86.4383 21.9657 85.2994 23.0348C84.1563 24.1039 82.6529 24.6384 80.7851 24.6384ZM83.825 18.6715C83.825 17.5775 83.5848 16.7198 83.1002 16.0941C82.6157 15.4684 81.9323 15.1535 81.046 15.1535C80.1432 15.1535 79.4392 15.4311 78.9297 15.9864C78.4245 16.5416 78.1677 17.3869 78.1677 18.5306C78.1677 19.6743 78.3872 20.5362 78.8221 21.1204C79.2569 21.7088 79.9279 21.9989 80.8307 21.9989C81.717 21.9989 82.4376 21.7337 82.9925 21.2033C83.5475 20.6729 83.825 19.8317 83.825 18.6715Z" fill="white"/>
<path d="M92.0209 14.0637C92.5427 13.5416 93.1971 13.1272 93.9798 12.8289C94.7626 12.5264 95.4666 12.3772 96.0837 12.3772C97.6533 12.3772 98.7632 12.8372 99.4217 13.7571C100.08 14.677 100.407 15.7999 100.407 17.1342V24.3608H97.3179V17.2709C97.3179 16.5416 97.1439 15.9822 96.796 15.5969C96.4481 15.2074 95.9429 15.0126 95.2761 15.0126C94.833 15.0126 94.3691 15.1286 93.8846 15.3565C93.4 15.5844 92.961 15.8538 92.5676 16.1521V24.3526H89.478V12.8247H91.0932L92.0209 14.0637Z" fill="white"/>
<path d="M106.346 24.3525L101.927 13.2515L105.112 12.8247L107.771 19.8152L110.289 12.8247H113.544L109.005 24.3525H106.346Z" fill="white"/>
<path d="M117.371 24.8995L117.918 23.5445L113.809 13.2515L116.994 12.8247L119.653 19.8152L122.171 12.8247H125.426L120.27 25.8733C119.906 26.8098 119.264 27.6095 118.344 28.2725C117.425 28.9396 116.46 29.3913 115.445 29.6275L114.352 27.0833C114.907 26.8471 115.495 26.557 116.12 26.2172C116.75 25.8816 117.164 25.4382 117.371 24.8995Z" fill="white"/>
<path d="M14.9243 12.5518C23.5842 7.57519 31.8671 5.73538 33.4243 8.44537L33.4217 8.44691C35.2603 11.6827 29.7462 18.329 21.091 23.3006C12.4342 28.2731 3.92205 29.6962 2.05719 26.4744L2.05671 26.4747C0.49951 23.7647 6.26446 17.5284 14.9243 12.5518Z" fill="#6357FF"/>
<path d="M28.38 19.5298C27.6346 22.4014 25.7751 24.983 23.0003 26.5783C20.242 28.1612 17.1028 28.472 14.2617 27.693C16.6058 26.8559 19.0866 25.7123 21.5714 24.2827C24.135 22.8075 26.4377 21.1832 28.38 19.5298Z" fill="#3830A6"/>
<path d="M27.676 11.7811L7.8383 23.1888C7.7886 23.1018 7.73476 23.0147 7.68506 22.9277C7.59395 22.7703 7.50698 22.6087 7.42415 22.447C7.15081 21.9125 6.92303 21.3655 6.7408 20.8144C6.28524 19.4428 6.10716 18.0257 6.1817 16.6334C6.21483 15.9828 6.30181 15.3406 6.44676 14.7066C7.1301 11.6941 9.01862 8.95923 11.9094 7.2976C14.8001 5.63597 18.1092 5.37906 21.0538 6.30725C21.6709 6.502 22.2755 6.75063 22.8512 7.04898C24.0895 7.68711 25.2243 8.55315 26.1809 9.63466C26.5661 10.0739 26.9223 10.5421 27.2453 11.0477C27.3447 11.201 27.4399 11.3584 27.5311 11.5201C27.5808 11.6071 27.6305 11.6941 27.676 11.7811Z" fill="#4138C2"/>
<path d="M27.6551 11.7479C28.5828 13.364 24.8927 17.2259 19.4135 20.3752C13.9343 23.5244 8.74093 24.7675 7.81323 23.1514L27.6551 11.7479Z" fill="#3830A6"/>
<path d="M10.671 21.5105C8.4263 17.603 9.77228 12.6139 13.6777 10.368C17.5831 8.12214 22.5695 9.46885 24.8142 13.3764L10.671 21.5105Z" fill="#F8F8FF"/>
<path d="M10.6709 21.5105C11.1969 22.4222 14.7875 21.3448 18.693 19.0989C22.5984 16.853 25.34 14.2922 24.8182 13.3806L10.6709 21.5105Z" fill="#E4E4F5"/>
<defs>
<clipPath id="clip0_72_1144">
<rect width="38.2503" height="14.9847" fill="white" transform="translate(130.75 9.52069)"/>
</clipPath>
</defs>
</svg>
