<svg width="76" height="76" viewBox="0 0 76 76" fill="none" xmlns="http://www.w3.org/2000/svg">
<rect width="76" height="76" rx="16" fill="url(#paint0_linear_121_6209)"/>
<g clip-path="url(#clip0_121_6209)">
<rect x="12" y="12" width="16" height="16" rx="2" fill="#FA00FF"/>
</g>
<g clip-path="url(#clip1_121_6209)">
<rect x="30" y="12" width="16" height="16" rx="2" fill="#FA00FF"/>
</g>
<g clip-path="url(#clip2_121_6209)">
<rect x="48" y="12" width="16" height="16" rx="2" fill="#9344F8"/>
</g>
<g clip-path="url(#clip3_121_6209)">
<rect x="12" y="30" width="16" height="16" rx="2" fill="#D55EFF"/>
</g>
<g clip-path="url(#clip4_121_6209)">
<rect x="30" y="30" width="16" height="16" rx="2" fill="#D55EFF"/>
</g>
<g clip-path="url(#clip5_121_6209)">
<rect x="48" y="30" width="16" height="16" rx="2" fill="#5B40A9"/>
</g>
<g clip-path="url(#clip6_121_6209)">
<rect x="12" y="48" width="16" height="16" rx="2" fill="#9344F8"/>
</g>
<g clip-path="url(#clip7_121_6209)">
<rect x="30" y="48" width="16" height="16" rx="2" fill="#5B40A9"/>
</g>
<g filter="url(#filter0_i_121_6209)">
<g clip-path="url(#clip8_121_6209)">
<rect x="48" y="48" width="16" height="16" rx="2" fill="#AFABCD" fill-opacity="0.14"/>
</g>
</g>
<defs>
<filter id="filter0_i_121_6209" x="48" y="48" width="16" height="17" filterUnits="userSpaceOnUse" color-interpolation-filters="sRGB">
<feFlood flood-opacity="0" result="BackgroundImageFix"/>
<feBlend mode="normal" in="SourceGraphic" in2="BackgroundImageFix" result="shape"/>
<feColorMatrix in="SourceAlpha" type="matrix" values="0 0 0 0 0 0 0 0 0 0 0 0 0 0 0 0 0 0 127 0" result="hardAlpha"/>
<feOffset dy="1"/>
<feGaussianBlur stdDeviation="0.5"/>
<feComposite in2="hardAlpha" operator="arithmetic" k2="-1" k3="1"/>
<feColorMatrix type="matrix" values="0 0 0 0 0 0 0 0 0 0 0 0 0 0 0 0 0 0 0.08 0"/>
<feBlend mode="normal" in2="shape" result="effect1_innerShadow_121_6209"/>
</filter>
<linearGradient id="paint0_linear_121_6209" x1="7.5" y1="2.5" x2="71" y2="72.5" gradientUnits="userSpaceOnUse">
<stop stop-color="#090C1E"/>
<stop offset="1" stop-color="#00093A"/>
</linearGradient>
<clipPath id="clip0_121_6209">
<rect x="12" y="12" width="16" height="16" rx="4" fill="white"/>
</clipPath>
<clipPath id="clip1_121_6209">
<rect x="30" y="12" width="16" height="16" rx="4" fill="white"/>
</clipPath>
<clipPath id="clip2_121_6209">
<rect x="48" y="12" width="16" height="16" rx="4" fill="white"/>
</clipPath>
<clipPath id="clip3_121_6209">
<rect x="12" y="30" width="16" height="16" rx="4" fill="white"/>
</clipPath>
<clipPath id="clip4_121_6209">
<rect x="30" y="30" width="16" height="16" rx="4" fill="white"/>
</clipPath>
<clipPath id="clip5_121_6209">
<rect x="48" y="30" width="16" height="16" rx="4" fill="white"/>
</clipPath>
<clipPath id="clip6_121_6209">
<rect x="12" y="48" width="16" height="16" rx="4" fill="white"/>
</clipPath>
<clipPath id="clip7_121_6209">
<rect x="30" y="48" width="16" height="16" rx="4" fill="white"/>
</clipPath>
<clipPath id="clip8_121_6209">
<rect x="48" y="48" width="16" height="16" rx="4" fill="white"/>
</clipPath>
</defs>
</svg>
